<svg
  xmlns:rdf="http://www.w3.org/1999/02/22-rdf-syntax-ns#"
  xmlns="http://www.w3.org/2000/svg"
  xmlns:cc="http://creativecommons.org/ns#"
  xmlns:dc="http://purl.org/dc/elements/1.1/"
  xmlns:svg="http://www.w3.org/2000/svg"
  xmlns:inkscape="http://www.inkscape.org/namespaces/inkscape"
  xmlns:sodipodi="http://sodipodi.sourceforge.net/DTD/sodipodi-0.dtd"
  xmlns:ns1="http://sozi.baierouge.fr"
  xmlns:xlink="http://www.w3.org/1999/xlink" id="Layer_1" xml:space="preserve" viewBox="0 0 519.10288 489.59988" version="1.1" y="0px" x="0px" enable-background="new 0 0 595.28 841.89">
  <path id="path4" stroke-linejoin="round" d="m139.47 397.72c0.751-0.751-46.979-45.044-46.012-46.011 3.159-3.159 141.03 126.95 143.18 124.8 4.63-4.63-202.64-195.69-199.17-199.17 4.615-4.615 223.57 216.14 229.05 210.66 5.397-5.396-253.51-242.25-247.88-247.88 5.229-5.23 252.83 246 258.61 240.22 5.864-5.865-273.36-263.5-268.43-268.43 4.971-4.97 274.13 265.57 279.04 260.66 4.317-4.317-290.06-278.48-284.27-284.27 6.372-6.372 290.52 280.72 294.81 276.43 7.064-7.064-301.43-292.18-296.81-296.8 6.864-6.864 300.45 295.72 307.28 288.89 7.583-7.584-313.73-300.82-307.28-307.28 7.65-7.651 310.95 305.88 317.61 299.22 6.983-6.983-324.38-308.67-316.52-316.52 5.424-5.425 318.85 316.31 326.77 308.39 5.926-5.926-329.22-318.89-324.05-324.05 5.033-5.033 326.35 323.7 334.22 315.83 6.453-6.453-336.95-324.1-330.52-330.52 6.899-6.899 333.02 329.7 340.55 322.17 5.406-5.406-342.31-329.21-335.76-335.76 8.316-8.316 340.08 332.87 345.67 327.28 5.462-5.462-347.2-332.86-340.03-340.03 7.106-7.106 344.11 337.16 349.83 331.44 6.964-6.964-348.84-337.57-343.2-343.2 8.39-8.391 345.58 341.8 352.88 334.5 8.48-8.48-353.32-337.59-345.45-345.45 8.547-8.547 347.96 343.61 354.98 336.59 5.869-5.869-355.06-338.23-346.64-346.64 6.844-6.844 349.59 344.03 356.01 337.62 7.704-7.705-353.31-340.33-346.82-346.82 5.852-5.852 349.1 344.58 356.03 337.65 5.748-5.748-352.37-339.46-345.92-345.92 7.17-7.17 349.73 341.81 354.96 336.58 8.314-8.315-350.78-337.13-343.95-343.95 5.566-5.566 347.57 339.69 352.82 334.44 5.619-5.62-346.34-335-340.67-340.67 5.915-5.915 343.04 337.27 349.34 330.96 6.397-6.397-341.44-330.5-335.96-335.97 7.843-7.843 337.52 332.94 344.43 326.04 6.073-6.073-337.16-321.72-329.44-329.44 6.827-6.827 331.62 325.34 337.67 319.28 7.135-7.134-328.03-313.64-320.83-320.83 6.169-6.169 323.31 315.92 328.8 310.42 6.311-6.311-317.08-304.1-310.59-310.59 5.905-5.905 311.37 306.85 318.3 299.92 5.58-5.581-303.64-292.34-297.99-297.99 5.683-5.682 300.3 292.1 305.4 287.01 6.598-6.597-284.88-275-279.94-279.94 6.405-6.405 281.84 273.78 287 268.62 4.94-4.94-223.28-212.54-217.91-217.91 4.939-4.939 219.87 210.94 224.6 206.21 5.156-5.156-219.38-212.63-216.01-216.01 3.244-3.244 217.75 208.41 222.28 203.89 3.323-3.323-217.8-208.89-213.35-213.35 3.308-3.308 215.07 204.84 219.15 200.76 3.615-3.614-213-206.27-209.64-209.64 3.192-3.192 210.79 200.65 214.91 196.53 3.188-3.188-208.75-200.72-204.74-204.74 3.371-3.371 205.96 194.26 209.3 190.92 4.736-4.737-201.92-194.46-198.19-198.19 4.57-4.57 198.21 187.5 202.05 183.66 3.278-3.278-193.98-185.64-189.81-189.81 4.2-4.2 189.67 177.34 192.7 174.31 3.914-3.914-182.7-175.56-179.13-179.13 4.148-4.149 176.72 166.42 180.76 162.38 3.83-3.831-168.48-162.93-165.71-165.71 3.033-3.034 163.16 149.87 165.71 147.32 3.553-3.553-152.38-145.71-149.05-149.05 2.969-2.969 145.5 131.72 147.8 129.42 2.813-2.814-131.49-127.42-129.46-129.46 2.634-2.634 122.96 108.44 124.89 106.5 2.065-2.065-106.41-103.06-104.73-104.73 1.669-1.669 92.322 78.089 94.397 76.013 1.068-1.068-70.24-66.916-68.577-68.578" stroke="#f00" stroke-linecap="round" stroke-width="2.5" fill="none" />  >
</svg>
