<svg
  xmlns:dc="http://purl.org/dc/elements/1.1/"
  xmlns:cc="http://creativecommons.org/ns#"
  xmlns:rdf="http://www.w3.org/1999/02/22-rdf-syntax-ns#"
  xmlns:svg="http://www.w3.org/2000/svg"
  xmlns="http://www.w3.org/2000/svg"
  xmlns:sodipodi="http://sodipodi.sourceforge.net/DTD/sodipodi-0.dtd"
  xmlns:inkscape="http://www.inkscape.org/namespaces/inkscape" id="svg5471" viewBox="0 0 570.19 498.66" version="1.1" inkscape:version="0.91 r13725" sodipodi:docname="heart1.svg">
  <path id="path5253" d="m 413.1,499.55 c -0.016,0.15827 -1.3677,0.18392 -3.9962,0.0575 -2.6286,-0.12646 -6.5341,-0.40556 -11.651,-0.90093 -10.234,-0.99074 -25.329,-2.8204 -44.633,-6.401 -19.303,-3.5806 -42.826,-8.9294 -69.61,-17.274 -26.783,-8.345 -56.837,-19.702 -88.734,-35.37 -17.522,-8.6004 -35.663,-18.53 -53.786,-30.297 -18.123,-11.768 -36.231,-25.374 -53.442,-41.464 -14.893,-13.918 -29.075,-29.777 -41.547,-47.596 -12.472,-17.819 -23.234,-37.598 -31.06,-59.264 -10e-6,-2e-5 -2e-5,-4e-5 -2e-5,-6e-5 -7.1652,-19.805 -11.69,-41.326 -12.468,-63.386 -0.77785,-22.06 2.1924,-44.657 10.15,-66.298 7.5705,-20.496 19.632,-39.852 35.971,-55.558 15.884,-15.264 35.843,-26.899 57.898,-32.452 23.021,-5.7168 47.365,-4.7321 70.724,-0.10687 29.797,5.8404 58.82,17.539 85.035,34.301 1.3615,0.87053 2.7137,1.7536 4.0564,2.649 25.956,19.226 48.035,43.552 64.494,71.114 -12.297,-10.639 -21.298,-24.087 -26.191,-38.435 -3.6744,-15.618 -3.0989,-32.003 1.4435,-47.093 4.633,-15.37 13.33,-29.257 24.791,-40.033 11.705,-10.996 26.177,-18.657 41.461,-22.247 12.794,-2.9395 25.745,-3.0868 38.302,-1.3164 12.557,1.7705 24.719,5.4585 36.001,10.271 18.758,7.9364 35.689,18.836 50.448,31.614 14.759,12.777 27.347,27.432 37.553,43.038 11.263,17.226 19.688,35.523 25.694,53.993 6.0059,18.47 9.5933,37.113 11.18402,55.245 1.207,13.76 1.3056,27.21 0.6503,40.241 -0.6553,13.031 -2.06472,25.642 -3.93682,37.755 -2.8884,18.719 -6.9111,36.31 -11.638,52.659 -4.7273,16.349 -10.159,31.458 -15.909,45.284 -5.7504,13.826 -11.819,26.372 -17.868,37.651 -6.0486,11.279 -12.077,21.293 -17.793,30.091 -5.7169,8.7983 -11.123,16.383 -15.976,22.817 -4.8538,6.434 -9.1556,11.719 -12.717,15.911 -3.5612,4.1922 -6.3816,7.2927 -8.3278,9.329 -1.9462,2.0363 -3.0179,3.0094 -3.1421,2.9014 -0.1242,-0.10805 0.70178,-1.2948 2.3994,-3.5344 1.69762,-2.2396 4.2663,-5.5329 7.5688,-9.9003 3.3025,-4.3674 7.3384,-9.81 11.917,-16.377 4.5789,-6.5668 9.7006,-14.259 15.125,-23.134 5.4246,-8.875 11.152,-18.934 16.895,-30.22 5.7431,-11.286 11.502,-23.801 16.943,-37.553 5.4413,-13.752 10.565,-28.742 14.994,-44.923 4.4294,-16.181 8.164,-33.554 10.785,-52.001 1.6934,-11.94 2.9382,-24.332 3.4485,-37.082 0.51029,-12.75 0.28624,-25.86 -1.0207,-39.209 -1.7208,-17.577 -5.3541,-35.609 -11.292,-53.411 -5.9383,-17.802 -14.182,-35.376 -25.121,-51.826 -9.9011,-14.892 -22.053,-28.86 -36.223,-41.001 -14.17,-12.14 -30.358,-22.452 -48.2,-29.872 -10.727,-4.4223 -22.145,-7.8409 -33.749,-9.4786 -11.604,-1.6376 -23.395,-1.4941 -34.805,1.2903 -13.64,3.2505 -26.624,10.183 -37.026,20.022 -10.194,9.6336 -17.963,22.12 -22.049,35.815 -4.0173,13.442 -4.5001,28.131 -1.2018,42.013 1.9655,14.668 7.5963,28.653 16.068,40.057 -18.248,-24.42 -42.019,-45.73 -69.525,-62.145 -1.2897,-0.85954 -2.5886,-1.7073 -3.8962,-2.5431 -25.179,-16.093 -53.035,-27.349 -81.566,-32.963 -22.395,-4.36 -45.282,-5.4274 -66.419,-0.10687 -20.26,5.0236 -38.79,15.791 -53.585,29.9 -15.238,14.527 -26.588,32.643 -33.79,51.864 -7.6312,20.271 -10.509,41.667 -9.8337,62.684 0.675,21.017 4.9017,41.653 11.617,60.715 10e-6,2e-5 2e-5,4e-5 2e-5,6e-5 7.3721,20.89 17.658,40.066 29.644,57.426 11.986,17.36 25.673,32.906 40.076,46.628 16.66,15.868 34.293,29.37 52.005,41.122 17.712,11.752 35.504,21.754 52.726,30.49 31.361,15.895 60.958,27.589 87.367,36.345 26.409,8.756 49.64,14.589 68.724,18.696 19.083,4.1077 34.03,6.5076 44.158,8.0931 5.064,0.79274 8.9269,1.3755 11.518,1.8103 2.5914,0.43483 3.9114,0.72229 3.8954,0.88056 z" inkscape:connector-curvature="0" style="fill:transparent;fill-rule:evenodd;stroke:#800000;stroke-width:2" />
</svg>