<?xml version="1.0" encoding="UTF-8" standalone="no"?>
<!-- Created with Inkscape (http://www.inkscape.org/) -->

<svg
   xmlns:dc="http://purl.org/dc/elements/1.1/"
   xmlns:cc="http://creativecommons.org/ns#"
   xmlns:rdf="http://www.w3.org/1999/02/22-rdf-syntax-ns#"
   xmlns:svg="http://www.w3.org/2000/svg"
   xmlns="http://www.w3.org/2000/svg"
   xmlns:sodipodi="http://sodipodi.sourceforge.net/DTD/sodipodi-0.dtd"
   xmlns:inkscape="http://www.inkscape.org/namespaces/inkscape"
   width="210mm"
   height="297mm"
   viewBox="0 0 744.09448819 1052.3622047"
   id="svg4149"
   version="1.1"
   inkscape:version="0.91 r13725"
   sodipodi:docname="woman2.svg">
  <defs
     id="defs4151" />
  <sodipodi:namedview
     id="base"
     pagecolor="#ffffff"
     bordercolor="#666666"
     borderopacity="1.0"
     inkscape:pageopacity="0.0"
     inkscape:pageshadow="2"
     inkscape:zoom="0.35"
     inkscape:cx="375"
     inkscape:cy="520"
     inkscape:document-units="px"
     inkscape:current-layer="layer1"
     showgrid="false"
     inkscape:window-width="1920"
     inkscape:window-height="1058"
     inkscape:window-x="-8"
     inkscape:window-y="-8"
     inkscape:window-maximized="1" />
  <metadata
     id="metadata4154">
    <rdf:RDF>
      <cc:Work
         rdf:about="">
        <dc:format>image/svg+xml</dc:format>
        <dc:type
           rdf:resource="http://purl.org/dc/dcmitype/StillImage" />
        <dc:title></dc:title>
      </cc:Work>
    </rdf:RDF>
  </metadata>
  <g
     inkscape:label="Layer 1"
     inkscape:groupmode="layer"
     id="layer1">
    <path
       style="fill:#000000"
       d="m 39.22652,560.1739 c -1.08477,-2.59622 -2.58435,-7.15103 -3.3324,-10.1218 -2.02782,-8.05321 -0.55953,-29.12778 2.8511,-40.92204 2.5594,-8.85064 2.97229,-13.59177 3.59234,-41.25 0.53414,-23.82557 1.27202,-34.00122 3.10579,-42.83007 2.23953,-10.78237 2.29314,-12.97809 0.77835,-31.875 -2.64519,-32.9987 -4.78287,-54.30877 -5.04521,-50.29494 -0.13481,2.0625 -0.72854,4.875 -1.3194,6.25 -0.95195,2.21532 -1.08429,2.10856 -1.16214,-0.9375 -0.16827,-6.58375 -2.39491,-3.38111 -3.25898,4.6875 -0.47857,4.46875 -1.10563,8.125 -1.39348,8.125 -2.01317,0 -6.685396,-4.46841 -6.685396,-6.39376 0,-1.35577 -0.928817,-2.41746 -2.1875,-2.50042 -1.203125,-0.0793 -3.03125,-0.21993 -4.0625,-0.3125 -1.03125,-0.0926 -2.04908,-1.39069 -2.261844,-2.8847 -0.212765,-1.49401 -1.900265,-4.23226 -3.75,-6.08499 -2.728682,-2.7331 -3.439401,-2.98705 -3.767311,-1.34611 -0.851627,4.26174 -7.720845,1.39023 -7.720845,-3.22752 0,-1.2375 -0.636099,-2.25 -1.413553,-2.25 -0.912757,0 -1.166278,-1.52377 -0.715592,-4.30102 0.383879,-2.36558 0.21173,-4.47495 -0.382553,-4.6875 -1.317458,-0.47123 1.595885,-14.96006 5.211613,-25.91875 4.017866,-12.1775 15.403089,-32.45132 22.163998,-39.46773 8.791513,-9.12375 10.137253,-11.61078 10.127123,-18.71563 -0.005,-3.4564 -1.96965,-14.44062 -4.36604,-24.40937 -6.465796,-26.89712 -6.299677,-28.23485 5.26585,-42.4048 5.98636,-7.33441 7.25347,-11.80833 7.10748,-25.0952 -0.15294,-13.91935 -2.82612,-52.34708 -4.05958,-58.357549 -0.69237,-3.3738 -0.48152,-9.59035 0.59355,-17.5 0.91706,-6.7471 2.34686,-17.95935 3.17733,-24.91612 l 1.50996,-12.648665 -4.19141,-5.47633 c -2.30528,-3.011981 -6.14087,-7.343276 -8.52353,-9.625099 -3.113975,-2.98219 -3.950799,-4.530078 -2.97604,-5.50484 0.97477,-0.974762 2.64059,-0.376325 5.92426,2.128254 3.68073,2.80743 4.78098,3.148341 5.66352,1.75484 2.24443,-3.543858 1.10197,-5.782498 -4.39117,-8.604485 -4.5914,-2.358743 -6.0746,-5.676093 -1.9529,-4.367916 2.5455,0.80791 2.73888,0.578767 1.99908,-2.368827 -1.66019,-6.6147256 2.18904,-3.2613686 12.40857,10.810059 3.11799,4.293204 4.32003,7.264696 4.32003,10.679258 0,2.602017 1.19821,15.675275 2.66269,29.051681 1.8394,16.80087 2.60089,31.08441 2.46279,46.195739 l -0.1999,21.875 4.41221,8.67834 c 3.18681,6.2681 4.41221,10.30474 4.41221,14.53444 0,13.76934 12.11023,10.5816 14.78209,-3.89104 0.62589,-3.39026 0.56391,-6.76381 -0.15383,-8.37231 -0.9044,-2.02685 -0.59026,-3.73108 1.26845,-6.88135 1.66421,-2.82063 2.15559,-5.03879 1.5055,-6.79613 -0.72422,-1.95777 -0.20855,-3.26661 2.06637,-5.24462 1.66728,-1.44969 3.03498,-3.34264 3.03933,-4.20656 0.004,-0.86392 1.69184,-2.52898 3.75,-3.70013 2.05815,-1.17115 3.74209,-3.01319 3.74209,-4.09344 0,-4.00959 13.80291,-6.95263 17.5,-3.73134 1.03125,0.89854 3.82165,1.8183 6.20088,2.04392 3.41727,0.32406 4.48389,1.0666 5.07817,3.53523 0.5294,2.1991 1.56244,3.09559 3.48663,3.02574 2.14432,-0.0778 2.73432,0.60995 2.73432,3.1875 0,1.80772 0.5324,3.82113 1.18313,4.47426 0.65071,0.65312 1.32309,3.57639 1.49415,6.49616 0.23474,4.00628 -0.28553,5.78886 -2.12061,7.26602 -1.78439,1.43635 -2.00187,2.13519 -0.81699,2.6254 1.18509,0.4903 1.25207,1.10493 0.2518,2.31019 -0.94371,1.13709 -0.95975,1.8913 -0.0521,2.45221 2.02258,1.25003 1.54964,3.52168 -0.5643,2.71048 -1.27536,-0.4894 -1.875,0.0675 -1.875,1.74126 0,1.35343 -0.5625,2.46078 -1.25,2.46078 -0.6875,0 -1.25,0.84375 -1.25,1.875 0,1.03125 -1.00372,1.875 -2.23048,1.875 -1.22678,0 -3.22733,1.6875 -4.44568,3.75 -1.94386,3.2907 -4.09277,4.42231 -7.39608,3.89477 -2.39493,-0.38246 -13.03778,8.5715 -15.07098,12.67942 -2.16485,4.37392 -2.16909,4.79166 -0.0931,9.16642 1.1963,2.521 4.97219,7.18256 8.39088,10.35901 12.06605,11.21111 14.16464,13.65509 19.57382,22.79522 10.32509,17.44678 12.29235,19.54963 23.14666,24.74204 6.46875,3.09448 13.16239,7.66381 18.95543,12.9397 11.11004,10.11824 16.75204,14.01595 31.04457,21.44675 19.98377,10.38974 33.12103,20.72666 26.3416,20.72666 -2.36438,0 -2.43028,0.54153 -0.45146,3.71012 3.36009,5.38036 -0.75374,3.85512 -7.48537,-2.77528 -7.33824,-7.22786 -11.65423,-9.6221 -15.71597,-8.71821 -2.50653,0.55779 -2.38422,2.66804 0.57694,9.95341 1.07335,2.64076 1.21899,4.47019 0.41954,5.26964 -1.41749,1.41749 -10.7056,-9.95554 -14.06105,-17.21736 -1.16835,-2.52853 -3.24928,-5.54798 -4.62428,-6.70992 -1.375,-1.16192 -12.54571,-7.34942 -24.82378,-13.75 -22.22944,-11.58821 -22.38983,-11.70216 -37.94767,-26.96001 -8.59313,-8.42742 -16.90871,-15.64507 -18.47908,-16.03921 -4.30082,-1.07944 -9.82831,2.42807 -16.25034,10.3118 -8.48823,10.42019 -9.49303,12.76064 -7.50661,17.48494 2.04393,4.86108 3.44976,5.85387 25.474,17.9897 20.82985,11.47767 21.68965,12.09533 20.78862,14.93421 -0.85966,2.70852 8.50365,11.62737 18.43236,17.55742 3.95313,2.36107 7.1875,4.72392 7.1875,5.25079 0,1.49984 -4.3361,1.12186 -5.97916,-0.5212 -0.81355,-0.81355 -1.91042,-1.03331 -2.4375,-0.48836 -0.52709,0.54494 0.30729,1.84167 1.85416,2.88162 1.54688,1.03997 2.8125,2.48105 2.8125,3.20244 0,0.72139 0.93093,2.34028 2.06874,3.59754 1.93175,2.13457 1.91893,2.28592 -0.19374,2.28592 -2.15876,0 -2.16202,0.111 -0.0712,2.42124 2.47653,2.73651 1.47938,5.57513 -1.6692,4.75175 -2.5479,-0.66629 -5.59552,2.31981 -4.37806,4.28969 0.60106,0.97255 0.0207,1.20526 -1.81099,0.72625 -2.92676,-0.76536 -3.66802,1.33851 -1.30437,3.70216 0.76509,0.76509 1.04596,1.94949 0.62415,2.632 -1.34724,2.17988 -6.71953,-1.37395 -8.85889,-5.86024 -1.90411,-3.99298 -2.11799,-4.10123 -3.73471,-1.89023 -1.22314,1.67273 -1.33664,2.80111 -0.39576,3.93478 0.95365,1.14909 0.72941,2.24115 -0.80932,3.94143 -3.13628,3.46555 -6.51361,3.92353 -8.96427,1.21558 -1.1769,-1.30042 -3.42567,-2.36441 -4.99729,-2.36441 -1.57162,0 -3.19802,-0.55097 -3.61421,-1.22439 -0.77572,-1.25514 -5.28199,0.65851 -7.29849,3.09939 -0.66901,0.80982 -1.25593,0.69977 -1.66667,-0.3125 -1.24372,-3.06514 -2.92567,-1.49067 -2.92567,2.73873 0,4.35384 -1.82898,7.02953 -2.8327,4.14406 -0.30043,-0.86366 -0.96729,8.31457 -1.48191,20.39605 l -0.93569,21.96634 5.27823,10.49788 c 7.32949,14.57762 8.39692,18.08278 9.96635,32.72693 1.43194,13.36129 8.9506,53.02959 11.14519,58.80178 0.69291,1.8225 3.5693,4.84195 6.39197,6.70991 2.82268,1.86796 5.96356,5.00409 6.97975,6.96919 1.69638,3.28044 1.63638,3.86957 -0.73309,7.19719 -4.60185,6.46268 -6.2781,13.47412 -6.2781,26.26007 0,14.71547 -1.512,20.02938 -5.6991,20.02938 -2.42515,0 -3.20291,-0.95188 -4.34073,-5.3125 -0.7624,-2.92188 -3.10243,-10.9375 -5.20005,-17.8125 -2.55035,-8.35882 -4.18547,-17.14352 -4.93553,-26.51624 -1.24509,-15.55865 -5.12611,-32.01204 -11.83857,-50.18909 -4.71351,-12.76398 -19.31621,-44.25615 -20.1395,-43.43285 -0.2681,0.26809 -1.5532,9.40886 -2.85577,20.31281 -1.97776,16.55593 -3.18736,21.98983 -7.33482,32.95037 -9.05966,23.94203 -10.24929,34.10846 -8.99554,76.875 0.2827,9.64291 -0.18063,14.21425 -2.02708,20 -2.38078,7.46003 -2.42124,7.50203 -7.59255,7.88212 -4.96068,0.36462 -5.28944,0.16574 -7.17133,-4.33828 z"
       id="path4168"
       inkscape:connector-curvature="0" />
  </g>
</svg>
