<?xml version="1.0" encoding="UTF-8" standalone="no"?>
<!-- Created with Inkscape (http://www.inkscape.org/) -->

<svg
   xmlns:dc="http://purl.org/dc/elements/1.1/"
   xmlns:cc="http://creativecommons.org/ns#"
   xmlns:rdf="http://www.w3.org/1999/02/22-rdf-syntax-ns#"
   xmlns:svg="http://www.w3.org/2000/svg"
   xmlns="http://www.w3.org/2000/svg"
   xmlns:sodipodi="http://sodipodi.sourceforge.net/DTD/sodipodi-0.dtd"
   xmlns:inkscape="http://www.inkscape.org/namespaces/inkscape"
   width="210mm"
   height="297mm"
   viewBox="0 0 744.09448819 1052.3622047"
   id="svg4170"
   version="1.1"
   inkscape:version="0.91 r13725"
   sodipodi:docname="woman3.svg">
  <defs
     id="defs4172" />
  <sodipodi:namedview
     id="base"
     pagecolor="#ffffff"
     bordercolor="#666666"
     borderopacity="1.0"
     inkscape:pageopacity="0.0"
     inkscape:pageshadow="2"
     inkscape:zoom="1.4"
     inkscape:cx="134.98691"
     inkscape:cy="756.98747"
     inkscape:document-units="px"
     inkscape:current-layer="layer1"
     showgrid="false"
     inkscape:window-width="1846"
     inkscape:window-height="1058"
     inkscape:window-x="1986"
     inkscape:window-y="-8"
     inkscape:window-maximized="1" />
  <metadata
     id="metadata4175">
    <rdf:RDF>
      <cc:Work
         rdf:about="">
        <dc:format>image/svg+xml</dc:format>
        <dc:type
           rdf:resource="http://purl.org/dc/dcmitype/StillImage" />
        <dc:title />
      </cc:Work>
    </rdf:RDF>
  </metadata>
  <g
     inkscape:label="Layer 1"
     inkscape:groupmode="layer"
     id="layer1">
    <path
       style="fill:#000000"
       d="m 168.81253,481.2486 c -8.92973,-4.4162 26.76781,-1.88175 18.90477,-19.35083 -0.2626,-17.35778 -2.16434,-34.90662 6.47052,-48.11757 4.50929,-16.50374 33.6775,-17.70161 37.43724,-25.12812 -13.47328,13.42851 -41.43966,-12.07505 -19.61868,-17.49841 12.0265,11.40678 -11.47125,-2.07121 -4.07903,12.63439 17.15405,15.97254 37.48466,-10.24724 35.58529,-23.92484 6.33729,23.04511 -7.65969,42.71282 -28.87057,50.73692 -14.29115,0.16221 -16.1768,27.4642 -19.32076,27.21777 -9.19129,-9.49952 12.82339,19.5744 20.98497,5.11444 11.1377,-21.73104 4.16671,22.53247 -13.26889,10.5206 -19.12741,-13.46277 -4.3586,8.98914 4.71621,14.26695 8.36954,11.54315 37.26914,2.01082 23.69935,-6.91556 19.13546,2.77456 -9.72623,25.22767 -20.4268,12.1632 -10.33639,1.17365 -22.13718,-32.00893 -19.04717,-10.77952 2.61895,13.57391 -10.05975,25.35772 -23.16645,19.06058 z m 22.94271,-52.79787 c -2.43374,0.90004 1.72274,5.86201 0,0 z m 110.51392,43.03689 c -3.22352,-12.31484 -5.76881,-24.49955 -0.57007,-36.84303 -5.76366,21.9741 -31.93325,32.45791 -51.78756,22.68896 -17.7087,-7.17454 -20.56611,-38.21953 -0.18419,-43.58812 17.65871,-4.82975 8.8544,25.25541 2.2092,10.96675 17.55579,-1.34623 -11.19963,-15.99343 -10.76743,1.55248 -6.91299,28.55311 35.77306,41.09733 51.10858,19.4454 6.01336,-8.26844 11.02634,-19.75283 0.70726,-7.9977 -2.77112,10.74486 -42.35845,5.99471 -26.52772,1.63797 13.7572,-13.3217 46.18117,-9.06157 33.25405,-35.82764 -3.44781,-14.62097 -13.44478,-26.39192 -25.55983,-34.7855 11.94344,11.93029 19.98707,28.05595 13.74982,45.16922 -0.71995,7.67391 -11.16293,18.84537 -5.9752,3.0311 -1.47861,-18.51563 -2.1702,-40.60703 -15.99692,-53.82532 21.64976,8.50028 50.21977,21.25384 50.48889,48.4375 -1.17023,17.87609 -12.81664,-24.53582 -23.16377,-28.94056 8.25783,8.28482 11.40108,38.45442 11.19264,37.37806 0.39561,-15.30656 7.13864,16.60356 14.15585,18.06603 7.69035,18.83183 51.06866,14.09591 31.39648,-7.00808 -13.0846,4.72691 -1.26159,6.97641 1.71671,6.87813 -13.80595,14.69543 -10.94932,-20.54797 3.54301,-6.99291 14.30811,25.71191 -27.57277,30.01707 -37.2305,10.38839 -4.87113,-7.83135 -15.9941,-21.43257 -6.22246,-4.97851 6.81459,10.09477 29.85192,27.71594 24.71019,36.00473 -16.45786,-3.61644 -26.96556,-19.0032 -30.36528,-33.46014 2.82406,11.22436 6.77297,30.27347 -3.73191,36.18539 z m 22.88343,-9.93793 c -6.36203,-5.16361 -19.70882,-28.09043 -9.94278,-8.12944 1.3899,6.47503 24.99785,22.1328 9.94278,8.12944 z m -35.55591,-28.4375 c 16.27768,-14.67437 -20.61583,11.33604 -2.68505,1.93893 z m 13.40856,-4.66146 c -2.43373,0.90007 1.72273,5.86197 0,0 z M 82.832571,473.86215 C 60.56364,468.60858 76.492019,431.97671 67.188522,429.2303 c -0.613641,12.09661 -15.232087,29.7607 -20.197861,32.63189 -5.732463,-23.56757 12.753217,-41.65668 26.50937,-57.79184 5.98812,-10.16755 6.532803,-15.20232 -0.182844,-2.69087 -3.469085,8.68767 -28.145286,25.41746 -26.02435,23.62433 -3.80367,-15.17598 32.970542,-30.93929 26.966935,-33.24703 -18.882717,2.39182 -49.684286,4.19945 -49.272481,29.8535 0.344356,18.87751 28.881876,5.95872 12.2627,-2.24809 -7.572141,1.22943 -0.3294,14.10314 -5.688411,2.03873 14.583043,-17.0011 17.295193,24.18676 -2.54411,10.90972 -17.361315,-6.01222 9.462813,-41.78372 -12.086829,-19.87911 -21.8758176,17.83463 -12.8115798,-28.49163 -2.398772,-5.00036 -1.549391,-5.81793 -16.1924431,-1.84266 -5.581558,5.46484 8.059983,-4.90408 26.890129,-9.79245 9.604154,-16.19779 -23.7915098,-23.47821 30.039921,-43.36679 22.451204,-11.26181 -12.153144,18.49325 -26.707402,-17.94488 -5.993035,-8.85382 6.180686,9.44947 -12.007832,-6.59414 -8.443304,7.60545 19.454097,14.60392 12.207623,-28.06618 -5.665499,-9.922 -13.6672483,21.96253 17.890837,27.71318 31.818419,17.56946 8.937515,-0.0874 42.447765,-5.76218 33.886364,-11.95149 -14.892255,2.77251 -21.406043,-5.57317 -29.418762,-2.85513 -12.508484,-3.97162 -30.174332,-15.76261 -36.97956,-13.4905 18.879688,-4.45706 -9.725163,-19.71051 -7.17966,0.0775 -9.3030423,9.08468 -5.0699034,-25.70747 8.421991,-13.7176 -14.174515,-1.25481 -22.9105532,-30.46657 -12.0897712,-31.10034 -1.8221788,9.8543 12.3386672,33.46377 6.8496522,12.07007 -7.057606,-13.8688 16.490286,-43.31409 23.018842,-22.06613 -11.319037,7.64341 4.84972,-9.12984 -10.79903,-3.06594 -15.615429,2.83514 -7.275895,48.78823 -7.137213,20.50383 11.903467,-25.13968 9.28287,13.99504 1.467849,20.4275 7.726026,14.78931 22.191574,26.46384 38.862039,29.11593 -22.415251,-8.9082 -36.741726,-39.86949 -20.570918,-60.20532 18.985212,-8.75295 -5.415247,12.02284 2.836538,22.81997 -0.430593,23.11146 21.488081,43.15697 44.629574,39.05822 19.346795,0.22997 41.384305,-19.50583 42.776175,-34.88049 -7.40549,22.08424 -32.474935,35.78169 -54.80857,27.87913 -21.888764,-4.47428 -36.901209,-32.54388 -21.740403,-51.32349 15.932626,-24.67635 58.871993,1.27626 37.002424,24.46458 -11.444103,13.56143 -31.100271,-15.74594 -13.68117,-12.30475 -12.554205,3.5275 10.372792,21.37471 15.337178,3.44011 7.396361,-24.66018 -32.807046,-29.22943 -38.122788,-7.1772 -9.225356,16.46054 15.875563,40.00493 20.249773,37.91131 21.549756,5.83876 47.681266,-3.25245 53.056076,-26.93951 3.15245,-8.63625 1.67733,-36.47189 0.39137,-32.847 -7.11832,-9.39978 -17.3534,-30.08591 -26.44525,-9.52673 -8.632104,6.79085 -20.912379,10.46795 -10.480964,-4.05557 21.133674,-9.8726 -25.158007,-7.62944 -7.496615,-14.86866 8.120418,-4.98718 39.665879,5.87251 17.287359,6.73721 4.82637,2.57293 20.67504,4.11107 16.17133,-9.51845 4.44739,-15.62905 32.77834,-22.49254 23.24104,-40.69369 -12.82367,7.91037 -17.71539,-5.60405 -2.85869,-3.78806 18.84357,6.40492 0.13353,25.6535 -0.10491,28.06717 13.49178,4.67054 34.50835,-13.58221 11.66713,-14.11878 8.03309,-15.14114 17.49142,11.41382 16.79649,10.43911 12.9654,-14.22407 -1.05161,19.76672 -7.00718,8.40755 14.86825,-10.15836 -11.58739,3.98366 -13.70524,1.0012 23.07749,13.91639 -20.60926,29.79525 -9.02851,7.89314 15.19707,0.39888 -10.23652,5.05844 5.22406,10.04622 21.53539,-10.99254 -14.62582,-28.03566 -14.28858,-4.61924 -0.37464,31.07535 43.36021,23.33342 54.60941,3.41829 7.99619,-15.9477 9.75901,-35.15266 11.22101,-52.96223 3.43683,-0.1685 5.11324,30.58721 -0.76447,39.74377 -8.87555,20.5523 -31.25466,41.90323 -55.11457,31.84359 -20.13307,-4.91219 -14.4365,-34.96269 -1.26955,-37.13368 -23.06855,0.39025 -21.59444,33.37984 -2.17744,39.36928 5.63443,7.15087 38.44091,0.57775 16.79177,8.53481 -8.20467,-0.4446 -24.0229,-5.16962 -9.33482,3.98796 10.43792,-1.29835 27.46989,18.76572 18.47673,20.52588 -8.79018,-6.45184 -28.80861,-23.45793 -14.75063,-2.13539 6.80196,4.81944 -0.98623,41.79786 -0.92114,22.71359 0.23849,-9.72579 -4.41081,-26.62025 -3.13267,-6.20838 4.94117,13.12826 -13.29818,38.39681 -17.19123,37.77555 5.65819,-9.61207 16.19655,-30.74033 12.82714,-35.06625 -4.0856,12.20869 -8.7978,25.32848 -15.85525,35.7906 -10.26185,2.8226 -30.555631,24.00599 -19.22295,2.5118 7.11562,-16.97762 32.43347,-27.93047 31.79691,-45.72237 -4.78863,23.78699 -29.69188,29.82419 -45.598987,43.65367 -13.449138,13.68896 -22.734768,38.60373 -9.508172,55.20498 22.382689,25.47648 55.368029,-24.33701 19.7301,-29.66464 -17.067965,0.16879 -6.466955,26.75967 0.887412,11.04616 -5.478857,-12.09619 9.578947,10.77149 -5.248585,8.37257 -25.58024,-13.10584 18.146992,-36.00821 22.710332,-9.71108 7.49657,15.56338 -11.17875,30.07812 -20.367291,31.57195 11.028641,2.27527 32.874081,25.05164 10.028831,16.1723 -13.508162,-6.76009 -18.160115,-21.69501 -33.267589,-27.68212 -0.475819,4.40737 24.972382,39.52756 9.52655,30.83031 z m -22.63267,-36.37496 c 8.873528,-22.13361 -10.775288,17.08975 -3.5485,-2.44977 11.986429,-33.16317 -19.818089,36.40895 -1.140782,10.10944 1.662286,-2.48746 3.363531,-4.96933 4.689282,-7.65967 z m 72.877979,-102.1875 c -2.16845,-0.40419 1.31235,8.35237 0,0 z m 1.24207,-12.52379 c -1.50823,-2.80386 0.70938,11.85107 0,0 z m 9.08818,149.17819 c 13.47364,-13.86978 -28.67337,-21.2918 -5.58373,-8.61448 -2.57502,18.31798 -2.27731,-13.25122 -18.24189,-6.28028 -12.12391,-1.53566 23.08296,-6.19507 20.01497,-19.7177 4.85736,-10.42845 0.87387,-32.50666 9.20653,-36.70605 -6.3265,16.83527 2.45796,38.22784 -12.41522,51.85164 19.64948,-3.2472 17.65167,27.06808 7.01934,19.46687 z m 13.86681,-9.78134 c -25.58292,-6.05595 5.02201,-44.15278 3.40772,-20.6684 -11.44711,-17.25782 -16.03472,25.21511 5.01288,19.10784 20.39062,3.94696 18.10397,-31.84301 9.58674,-29.88296 8.38523,12.29027 -9.27451,35.22819 -8.97913,10.76344 0.85449,-8.12156 9.15101,-21.98347 -2.1743,-22.75548 2.84556,11.38858 3.33418,23.79547 -4.19318,7.72199 -4.53864,-17.44927 -12.76344,-54.79071 17.38497,-49.56774 11.18067,3.64631 6.16126,25.73729 2.7856,6.8355 -22.04046,-13.5346 -30.48669,29.81618 -5.0668,27.34755 16.71772,11.56176 -5.84026,6.70764 -9.19797,2.80631 19.68573,11.63782 29.53098,53.81759 -4.49081,49.8256 z m -46.36376,-9.88379 c 19.18294,-3.4534 0.65926,-44.2616 11.98292,-38.51113 9.29788,8.76721 -2.61766,44.85945 6.4496,18.4065 -0.87038,-9.8172 -8.29753,-39.32709 0.72756,-39.82063 3.46731,7.56002 4.85008,28.48166 5.60041,28.90153 5.53598,-15.24227 -9.80354,-31.33827 2.26282,-44.23052 -0.35242,8.60292 -0.10677,27.65581 4.95633,8.88723 9.99062,-10.75687 17.6532,-20.18628 9.50801,-34.31997 -0.51368,-11.28386 -1.5204,-24.69033 7.82977,-7.61435 7.18522,8.6412 -8.03075,36.95228 7.26609,16.5606 8.48047,-3.82737 40.52595,-18.10867 22.48435,0.008 -11.2218,6.04642 -27.45485,2.30395 -7.63117,7.19319 22.25745,4.52161 18.55334,45.4549 -5.27967,40.45564 -16.36003,-0.4894 -6.70346,-29.50871 0.68984,-16.15383 -19.15849,-3.10454 5.16845,27.65413 14.26438,7.17787 14.46593,-28.7531 -32.68036,-41.55919 -44.11351,-15.6539 -12.76847,18.9916 -4.36465,45.09615 -18.48336,63.17495 -0.20454,5.06454 -31.319987,11.13094 -18.51437,5.53849 z m 19.75578,-11.18332 c 10.35177,-20.48188 -18.78173,24.8881 0,0 z m 3.65299,-14.57974 c -1.50825,-2.80367 0.70941,11.85097 0,0 z m 3.68529,-28.07517 c -2.43374,0.90004 1.72273,5.862 0,0 z M 168.7344,366.0083 c -7.21296,-0.78822 2.3711,2.20199 0,0 z m 39.76563,74.96709 c -19.41144,-19.24852 18.71093,-30.92282 28.75,-44.3725 -6.37317,16.13508 -43.25222,25.90832 -28.75,44.3725 z m 5.53103,-8.41754 c -1.38772,-8.44411 20.37428,-23.33861 7.71392,-6.2801 -2.02261,0.0924 -7.5718,15.52666 -7.71392,6.2801 z m 14.93734,-4.90133 c 4.29902,-21.73327 24.70107,-39.94981 18.32274,-63.8976 5.46258,-9.56344 14.92923,22.85115 7.5096,31.31444 -7.02361,14.44752 -21.9304,23.92145 -26.46288,39.91383 z m 130.09981,-0.1125 c -5.46139,-10.38493 -1.13375,-13.2989 2.90109,-2.33907 9.07268,1.10105 14.06933,-12.7558 5.59576,1.45354 -0.36364,6.24107 15.86182,-13.11681 1.8387,-18.614 -8.64673,-2.11843 -14.95487,-28.02071 -13.22763,-6.9164 -4.14724,-6.16167 0.005,-31.77598 10.54065,-19.29208 10.02997,3.44481 24.91496,-12.37043 10.5208,4.67909 -8.58264,0.24586 -22.04308,-4.27652 -8.41143,6.50269 10.1812,1.04818 28.34408,1.65396 7.32852,6.94528 -8.35099,2.66042 -21.13408,-11.35194 -8.62242,1.99512 15.69754,7.23656 9.88817,37.66049 -8.46404,25.58583 z M 16.545151,423.64024 c -2.983518,-11.1616 11.096656,-19.31365 3.832888,-3.984 -2.714742,0.82501 1.463821,17.05834 -3.832888,3.984 z m 320.190989,-4.37396 c -12.86473,-8.12713 15.46288,-36.01517 -3.03283,-16.03219 -2.6683,11.21584 -13.01143,16.11867 -9.11813,0.87603 0.0791,-12.55892 34.43051,-14.58286 15.27901,-2.11827 -15.21323,17.90984 23.69857,25.96264 12.46801,4.91432 -3.02581,-1.02749 -8.87703,7.52616 -5.15759,-2.50362 22.01774,-0.81215 2.07432,30.90177 -10.43847,14.86373 z m 31.66927,-5.69339 c -7.67662,-9.80709 11.22679,10.57708 0,0 z m -102.07282,-5.7732 c 7.19472,-5.58529 -0.35671,-37.0115 -0.73462,-29.18692 7.07312,10.98242 -7.98363,36.70775 -11.59364,29.53373 18.34487,-7.63364 3.33707,-40.03184 4.0761,-44.98714 17.22369,8.62312 24.63692,38.79391 6.47841,49.6919 l 0.18074,-1.59743 z m 92.7855,-0.94516 c -7.56286,-8.95088 10.959,8.61901 0,0 z m -10.56726,-14.60606 c 12.76882,-15.0867 -12.17319,6.38376 2.32941,-10.87237 5.52423,-30.01045 -32.93105,-28.63136 -50.62167,-17.64333 -9.43452,4.53472 -34.37317,-3.48608 -10.78839,-0.18247 20.44391,-1.10863 50.05678,-22.81862 63.12525,4.02526 2.51497,9.20032 1.90981,22.25615 3.14068,4.11131 2.45213,-16.73571 -14.93196,-21.09944 -32.17077,-18.96678 -30.34164,14.06751 1.3538,-34.63981 3.58928,-19.8235 0.71846,8.46302 -17.84883,28.26355 -2.71758,13.03852 6.78358,-10.33334 27.43835,-27.79146 16.01481,-3.59165 -9.7319,16.74721 23.25231,-21.26949 3.38639,-23.29377 -11.32296,-0.19633 13.36525,-5.98336 8.16392,8.32784 1.86909,11.06363 -13.75906,22.28766 5.79526,16.58208 9.58846,4.04386 14.20968,32.294 28.90685,15.51222 8.45039,-22.40288 -29.322,-12.40124 -10.5231,-1.4098 13.74784,-8.8693 -3.89568,12.36934 -8.24298,-3.99499 -0.21818,-28.37882 40.5063,0.77472 15.98163,12.80376 -21.58373,12.63932 -17.75295,-33.23401 -28.45377,-16.28407 -5.52795,1.8425 -27.32343,-4.71187 -10.34818,1.89683 18.39508,-5.0854 25.11734,32.28765 12.07316,16.2113 2.25695,8.02934 -1.22816,19.54652 -8.6402,23.55361 z m -33.27405,-2.75669 c -5.67778,-6.30351 -31.81922,-24.56087 -11.19135,-22.85571 13.01705,-8.34513 44.54274,-4.71 38.01217,12.32016 -9.84993,-8.75372 -37.36355,-20.75676 -14.33426,-5.645 9.94345,15.91055 -4.43007,14.09894 -10.26975,1.80805 -4.47237,-8.55422 -19.74418,-6.04792 -4.43287,-1.46994 2.48416,9.61685 24.59485,24.19407 2.21606,15.84244 z m 19.47325,-0.12959 c -7.70112,-17.43424 5.03216,-2.22319 9.04505,2.09515 -3.09966,1.0258 -6.64085,0.0259 -9.04505,-2.09515 z m 1.33868,-9.26814 c -3.57292,-8.01822 6.4465,3.36276 0,0 z M 211.3011,366.86894 c -20.41318,-4.64722 3.10705,-54.67304 -12.40265,-27.39436 -3.82585,8.07862 -29.17096,17.27628 -11.30175,2.75503 9.12109,-16.67305 31.62279,-25.63399 25.65956,-48.38781 -3.2474,12.10878 -10.24881,37.62288 -30.33514,37.83338 -22.92955,10.21159 -28.7731,-36.14827 -8.17109,-24.21778 -15.80951,-0.46046 -8.54655,25.48737 9.10784,20.3492 25.06658,-4.43623 28.74412,-36.78084 22.70371,-57.09846 -2.65603,-10.22775 -0.95994,15.95358 -3.12023,19.5265 -0.74848,13.21315 -26.54485,42.07432 -18.22193,12.09332 -4.19737,-21.21376 17.90387,-35.26654 13.61614,-56.05696 -0.844,-15.82901 4.3659,16.72315 14.59482,13.60831 19.36491,1.98718 1.65324,16.1788 -5.07184,4.72031 7.67686,19.69995 11.10753,42.15454 1.61652,61.9393 -13.81557,17.49508 5.50275,55.42732 23.95622,31.17197 4.64667,-16.4819 -22.13447,-0.42833 -5.12328,-11.99315 20.1547,8.40758 -3.6188,32.67601 -17.5069,21.1512 z m -16.85752,-62.7862 c 4.93387,-6.16069 9.38997,-36.7276 4.19521,-32.04967 -5.55417,7.72528 -10.51587,38.54012 -6.26742,35.73405 z m -30.70898,51.19951 c 8.1e-4,-15.85474 21.80062,-25.55036 11.08929,-4.00379 -4.1405,2.74532 -16.11475,20.75535 -11.08929,4.00379 z m 99.76543,4.46638 c -33.0326,-3.87202 -48.98374,-40.77727 -43.3601,-70.56025 -2.90707,-13.72789 20.62855,-39.77792 -5.30294,-31.66964 -16.0055,-2.69773 4.76483,-17.14686 -2.24875,-5.65655 14.40584,15.2686 22.57077,-18.54234 15.85872,-28.90166 7.95851,16.62965 -1.36611,48.31809 25.87685,48.49455 -3.59161,-11.60105 15.11977,-39.00781 11.28164,-13.22116 -3.721,10.78803 -12.6338,17.27429 3.28272,11.63065 22.75778,0.69445 -11.15515,-24.83312 8.57494,-23.38055 -4.64331,-1.97571 -11.56015,-22.31076 0.43582,-6.25636 5.37125,10.00191 4.36388,31.89584 9.4098,8.73499 0.23674,-19.62713 6.75593,-8.59928 2.1175,3.59782 2.43605,13.75624 -40.88979,28.84101 -12.55544,19.84749 7.00763,-10.28914 40.14174,-21.38735 34.00685,-1.40309 -10.58054,4.743 7.23402,-10.91529 -9.38215,-9.0837 -8.91813,-0.42616 -25.39999,9.98467 -6.33077,7.55385 20.31045,11.22715 -30.69232,0.15846 -8.44583,8.65242 18.01537,11.14698 -8.04341,8.35123 -9.97166,0.3022 -0.0995,18.02037 -5.35033,5.73755 -6.36235,-1.35401 -14.79462,0.0973 -33.41839,-2.09767 -38.48177,-18.61854 -8.37015,19.54741 -7.93951,45.6074 2.42524,65.02919 11.11664,20.08559 39.12003,23.57476 57.81338,12.62735 10.62108,9.1694 -3.02273,-5.95534 7.12427,-12.0013 14.55545,-18.396 -23.59007,-37.49311 -19.39003,-12.88144 14.58071,-2.93625 -5.94308,11.98669 -4.40886,-3.95739 8.4728,-28.40648 43.95317,-0.77482 31.05759,20.40336 -10.60053,29.16449 -52.49056,27.68306 -70.70803,6.92875 -10.95625,-11.76096 -12.13973,-28.16442 -13.19839,-43.36842 -3.04135,25.39539 8.42898,55.8955 35.91531,61.72661 17.88637,3.44069 43.04005,0.65735 49.43914,-17.58515 11.25809,-16.87686 0.50108,-47.16035 -22.52775,-42.51369 -16.56994,2.69463 -11.88829,25.97192 -10.84852,26.79392 -19.86817,-20.30657 20.50191,-43.59711 34.71947,-21.22513 17.67291,22.67698 -2.37905,60.4004 -30.53932,61.53064 -5.06765,0.62843 -10.23255,0.6185 -15.27658,-0.21576 z M 83.240441,357.67824 c -8.259956,-0.37925 -25.178131,-17.86249 -8.052281,-5.9097 18.670481,11.02734 46.57514,-3.18761 47.40655,-24.45756 -0.41512,12.83849 -32.903107,21.88971 -10.22732,7.05299 6.75849,-15.55265 10.21625,-18.70929 9.6888,-30.08446 -8.31398,-23.19851 -25.574561,14.62343 -6.05616,3.55315 -9.44842,-9.9192 11.72093,2.74875 -4.02206,6.39403 -25.382823,-9.44571 11.86,-33.4315 13.66143,-7.06907 3.88101,15.59137 1.52972,39.68814 -17.11024,47.57474 -7.6887,4.00076 -16.889758,5.3204 -25.288719,2.94588 z m 222.799339,0.70723 c 3.07282,-10.99057 10.66462,2.25569 0,0 z m 49.96025,-17.97022 c 0.24228,-10.81083 23.80511,-28.45522 24.68277,-22.98852 -0.61397,12.97435 -11.07976,24.47951 -24.68277,22.98852 z m -2.94575,-2.92806 c -3.13224,-13.81415 7.86819,-46.27913 21.49133,-24.05739 -19.60957,-18.78814 -14.13907,15.44113 -21.49133,24.05739 z m -96.18177,-4.92992 c -25.68834,-8.99498 -29.11519,-39.9115 -26.05213,-63.19508 1.70178,2.32953 8.80452,35.22716 27.85805,32.02825 2.13313,12.14149 -31.38591,-15.00199 -12.71742,4.94724 5.89753,8.91417 35.46115,13.90497 9.72517,11.5094 -11.47231,-0.0626 -26.22468,-35.21675 -16.83359,-10.82202 3.40089,18.26205 36.35237,22.83523 39.77341,25.784 -7.00465,2.12666 -14.7794,1.87712 -21.75349,-0.25179 z m 59.12752,-3.95484 c 3.51549,-18.39524 3.9581,-37.69576 7.11783,-55.43966 1.58705,3.44203 -22.67434,27.4463 -26.3807,8.3044 13.89442,8.66663 32.46078,-10.97334 14.24548,-22.48533 -10.05411,-7.64598 -29.24479,11.87168 -18.75617,-7.08362 2.57285,-22.36668 9.37777,2.82107 0.59675,5.93417 11.98431,-8.49161 28.29779,5.15107 30.58851,10.037 6.68212,-22.00754 23.28684,-1.81008 25.86126,3.9928 13.91634,2.89232 4.2452,47.8875 6.657,22.17764 5.93344,-20.6512 -43.69075,-17.88274 -11.84739,-13.06004 17.28358,4.8785 -2.30605,35.14465 -6.19554,18.53179 24.10456,3.65826 -4.87431,-32.8985 -14.47793,-9.25213 -4.69124,8.9894 -1.08157,26.36167 1.01936,7.18729 1.0599,-10.799 22.94942,-12.31759 8.96341,-1.47248 0.78283,9.68835 -17.79762,18.8858 -11.91707,24.52274 0.19644,-12.11476 26.12345,-17.14494 11.40741,-3.86972 -2.98112,6.92023 -10.38261,9.5127 -16.88221,11.97515 z m 33.92402,-51.78183 c -11.81375,-1.20028 -8.92121,-29.16072 -23.58593,-11.15193 -6.56276,20.93186 4.9459,-2.049 10.41259,-1.57215 -4.50598,13.37496 5.31801,10.82896 15.36747,15.06247 l -2.1938,-2.33839 z m -249.57447,43.95377 c -11.104011,-4.83812 -9.664954,-21.44876 0.93907,-6.72174 7.5479,5.02427 25.99015,-2.01559 8.99561,8.16539 -3.26301,1.74238 -6.96673,-0.15462 -9.93468,-1.44365 z m 180.11951,-0.01 c 9.21135,-0.82776 9.97574,-21.16645 9.41766,-4.40825 -1.75813,2.42015 -6.20951,7.67858 -9.41766,4.40825 z M 41.568211,305.044 c -12.841202,-11.90221 15.080386,-22.2151 0.883462,-8.70735 6.989664,19.69184 20.441181,-5.89493 13.080448,-15.95181 -6.735515,6.56276 -21.200141,8.10903 -19.53209,18.97735 -5.875222,-22.28869 26.022877,-18.9257 34.362016,-35.23328 10.899417,-11.63811 30.605213,5.76345 33.115683,5.8748 -3.03813,-24.83488 19.69351,8.24188 10.9654,14.03386 -8.70942,-12.21453 -26.971234,-23.66492 -40.767574,-11.10453 0.02462,9.0655 -5.676157,16.46462 -3.985342,2.33471 1.958795,-16.13337 42.214066,-3.60127 17.630617,-11.86628 -18.150748,-8.30756 -35.741519,30.34085 -15.92591,26.92352 9.553902,-8.83975 -3.948413,18.37527 -10.906828,0.26757 3.623375,12.08686 -7.23185,24.06147 -18.919882,14.45144 z M 99.75003,269.36219 c -2.993594,-4.99395 -1.99353,4.64868 0,0 z m -22.457509,33.1762 c -7.55591,-10.3789 21.754602,-20.1924 3.144025,-8.62506 -7.865425,9.21399 12.99494,6.03172 -1.339048,9.96235 z m 184.325039,-0.68828 c 13.18214,-9.60731 -7.74844,-28.66809 -7.42955,-11.66229 -2.25647,9.46367 -6.98806,-18.63531 8.44241,-9.74782 10.32377,1.61487 8.21868,24.76494 -1.01286,21.41011 z M 155.45799,290.45175 c -2.85982,-10.65043 12.10805,-25.70137 7.81686,-6.0254 2.05778,3.05802 -12.96067,15.29785 -7.81686,6.0254 z m 13.81885,-8.41112 c -0.3262,-9.04528 -16.36623,-22.16815 2.27493,-12.63858 7.18927,1.46471 -1.83761,24.06021 -2.27493,12.63858 z M 41.612881,279.38184 c 10.649089,-0.90533 13.982286,-19.78795 11.859249,-2.87859 -2.259976,0.35516 -10.733089,5.0435 -11.859249,2.87859 z M 154.2547,276.78335 c -6.18452,-11.30184 3.4594,-16.11819 5.8788,-4.07645 -0.98007,0.75505 -4.27291,7.04467 -5.8788,4.07645 z M 58.710161,269.9136 c 1.861861,-13.70164 -21.056901,-7.38481 -9.263526,1.57821 -18.569155,-15.15146 20.145856,-11.62825 9.263526,-1.57826 z m 118.391289,1.9402 c -7.40863,-5.31565 -2.98122,-16.51152 0.86285,-4.21116 -2.92748,-9.53922 15.52241,-31.40444 10.93354,-32.80945 -3.36674,9.40037 -23.52635,36.53007 -9.69285,12.60407 4.71526,-9.67682 14.44528,-26.97489 11.55984,-4.71455 -4.23376,9.92392 -11.5613,23.01879 -6.2648,28.88948 -1.89695,1.9691 -5.26351,1.70157 -7.39858,0.24161 z m -59.68816,-3.74161 c 1.22736,-18.58065 -17.36735,-17.19539 -21.834679,-11.79523 4.474729,-20.24816 28.435019,1.36714 21.834679,11.79523 z M 57.818211,260.044 c -12.971873,-17.29377 40.716657,6.45917 16.558838,-11.10496 -6.460749,-13.0262 28.949801,12.88789 12.711571,10.83798 -10.23805,-3.46485 -20.781496,7.80003 -29.270409,0.26698 z m 179.649699,-8.57487 c -9.36233,-13.06257 17.53628,10.80447 21.52952,-6.33335 9.15291,-27.76659 3.16126,15.18582 -13.40373,9.2818 l -4.64054,-0.79142 z m 64.79533,1.03397 c -2.7183,-13.06628 7.44304,8.08661 8.13175,-6.82802 -5.93241,-4.8768 -17.24547,-1.94069 -2.4602,-5.49009 8.68946,3.9354 1.72764,18.91112 -5.67155,12.31811 z m -178.13821,-1.17437 c -11.4229,-5.10817 -5.76507,-18.79578 0.38779,-4.02104 8.45363,3.42781 23.28326,-3.23548 5.87862,4.95915 l -3.17464,-0.0439 -3.09177,-0.89423 0,0 z m 26.5358,-0.88151 c -9.32506,-13.90237 13.38871,2.69753 0,0 z m -61.832429,-2.48073 c -14.866691,-7.19627 9.365788,-14.13162 -2.500268,-5.33088 5.557821,9.25043 29.311717,-5.44183 8.899629,-2.49372 -21.28991,-11.33069 14.618138,-20.86122 4.318288,-11.91981 -19.120427,-1.25056 6.12225,16.43373 9.54751,3.59086 1.38233,-11.95441 19.24561,-17.14928 4.9481,-2.2892 -4.94555,9.31078 -12.3832,22.79925 -25.213259,18.44275 z m 80.942559,-4.2293 c 1.62286,-14.75119 -10.84417,-11.5892 -19.88022,-7.82169 10.2797,-6.78887 -16.97269,-19.25124 1.37322,-16.80326 3.20003,11.75587 33.51022,11.21882 18.507,24.62495 z m 149.97907,-1.67174 c -1.96511,-10.60552 -18.50067,-16.15703 -5.58202,-1.70458 -14.65491,-12.59276 -26.43633,-29.17107 -45.77719,-37.09706 -6.44828,-6.26108 -29.14759,-16.6122 -16.01558,-25.76768 8.08451,-13.98331 14.83687,12.9423 24.32823,15.64165 13.09665,17.60153 35.50238,24.64093 48.83266,40.87176 4.40267,7.47503 -3.16136,12.07561 -3.13822,7.46637 0.79644,3.21243 -3.29512,5.10464 -2.64788,0.58954 z m -191,0.79674 c -8.57884,-16.65044 16.1672,8.50314 0,0 z m 10.17107,-2.121 c -1.73307,-11.78814 4.81895,8.64888 0,0 z m 77.87278,0.794 c -3.7647,2.35285 -24.99094,-21.35958 -5.60852,-6.27827 6.64634,4.40193 -14.73218,-20.13636 -11.07068,-28.79186 2.031,-16.31684 -9.10904,15.49717 2.18218,19.36791 -10.954,11.13178 -14.27564,-42.52244 -17.64297,-15.28621 -0.43596,10.89971 -26.3478,22.87743 -7.16911,8.57324 10.51659,-5.99317 -17.04872,-29.11286 -2.516,-26.74624 10.66584,2.62081 8.93014,23.01212 10.88336,3.80193 0.21887,-3.95446 -20.08478,-7.66773 -9.61641,-9.3622 19.25873,11.15165 -20.34311,-26.23708 4.19503,-8.3888 9.79357,4.602 -20.27701,-14.18181 -19.39045,-21.89714 -0.58165,-10.49061 13.52256,-19.56848 2.45972,-13.01962 -1.0167,-21.65057 -12.82578,21.257 -16.97998,27.57106 l -9.57013,-14.76984 c 5.81364,-20.52785 12.50002,-53.04549 39.29073,-51.33658 25.30012,-14.963495 -3.34833,-37.646558 -7.12258,-59.397342 -3.44127,-15.383898 1.63863,-28.307903 10.22579,-41.9176372 12.86867,-9.4024458 52.6963,-0.8632994 34.97708,19.9722912 11.30872,18.651681 2.80786,42.64006 -10.40551,57.914247 -9.70458,32.863171 36.17867,18.066149 38.89828,44.448001 5.23588,14.87921 9.78555,25.70243 14.66109,40.70167 -4.71202,2.91613 -14.89509,5.33756 -14.89509,5.33756 -6.15722,-13.20403 -8.87508,-23.81974 -16.16138,-35.89408 6.21191,17.53905 -7.21251,35.51739 -21.0635,31.23075 11.79162,-1.10488 15.39029,10.22803 1.04124,3.48303 -21.94933,1.95148 -18.72836,31.74675 -11.93706,46.29172 14.13611,20.89096 -8.4179,-13.4426 -3.29247,-23.50339 -6.28604,-19.5753 31.59077,-28.33877 18.95794,-6.19174 -11.6666,0.69531 -5.23997,-14.05791 -3.88134,-2.55723 14.8725,-12.6962 -17.65082,-9.21828 -12.75366,6.37062 -1.17801,9.69842 1.31195,20.70406 1.8688,5.71564 4.35119,-14.7221 8.71117,-6.05889 5.63638,3.01051 6.98639,-16.79007 12.52306,-9.44641 15.49023,4.41742 11.56162,10.58923 36.18467,19.24661 49.04034,11.67938 -3.33043,-13.09515 -6.08777,7.35255 -5.76818,-5.3443 18.95477,-1.57496 -1.73207,18.54671 -8.38321,14.89208 -8.7544,15.11951 -14.46046,-17.97368 -13.46558,1.23042 -5.84465,-9.9226 -23.31237,-18.27237 -26.85925,-25.39388 0.98943,8.67626 9.33514,15.99046 5.53381,18.76759 11.54662,0.93242 8.12375,19.91455 0.1947,4.14579 -8.08897,-9.69051 -10.85859,-15.30482 -6.48824,0.11233 -4.42026,4.45393 17.48501,10.5913 8.25808,18.80296 l -1.75345,-1.76179 z m -9.966,-33.7355 c -2.16845,-0.40419 1.31235,8.35237 0,0 z m -15.28833,-31.22274 c 7.41742,-9.56168 21.13056,-25.16006 25.94335,-29.74652 6.00852,10.10402 -20.09822,21.87629 -0.53525,15.03176 18.08661,-18.8831 -13.47564,-24.7947 -23.56512,-16.19873 7.13515,7.17808 17.66935,16.03076 -0.81188,12.05676 -2.85561,-9.39872 -30.40418,-7.28466 -11.61074,-5.62517 20.11662,5.86795 -10.22913,28.79268 -5.95988,7.51721 14.37586,-3.10005 -7.79615,5.41629 6.65656,6.80602 13.77862,-17.80087 -24.3615,-11.87454 -7.27605,2.43603 10.99921,5.46641 13.11068,31.60649 17.15901,7.72264 z m -18.19557,-29.08976 c 3.36913,-2.7648 -9.94277,5.29523 0.0599,-4.47114 6.70458,-10.21671 -9.50175,2.51943 -6.0737,12.82992 -0.34025,4.77046 4.53609,-8.81641 6.0138,-8.35878 z m 80.71017,94.09686 c 0.98581,-10.147 5.52406,-16.29113 3.67466,-1.97122 0.3995,2.70081 -7.80294,7.21863 -3.67466,1.97122 z M 61.098711,240.85091 c -7.36268,-14.8487 21.754465,-23.07308 31.298447,-33.08618 13.518662,-12.95443 31.273382,-22.91186 40.059552,-39.95809 20.29293,12.3359 -2.44839,29.30255 -16.14878,35.85066 -18.760874,4.12591 -31.795854,27.42555 -43.135832,32.79714 9.858781,-18.5726 -7.097029,6.13275 -10.560518,4.55086 -0.186894,0.63046 -2.314529,3.00996 -1.512869,-0.15439 z m 53.731249,-3.53496 c 0.69471,-30.11367 37.41494,-21.36866 53.66102,-34.054 4.87594,2.35308 -20.56225,11.61332 -6.2687,14.78295 9.50722,-19.7238 12.09416,-0.79401 3.17169,7.18171 -7.95672,6.75524 -16.13926,-24.89509 -23.18193,-2.98105 -3.10851,8.34204 0.92544,-16.61408 -8.83592,-4.46298 -12.0434,-2.74361 -18.36154,36.49119 -18.54618,19.53337 z m 121.17007,3.93795 c 7.19254,-10.52892 6.00959,4.97014 0,0 z m 47.20505,0.28288 c -6.87668,-5.32895 -8.00346,-13.46838 -3.0271,-14.40111 -18.05171,-1.05162 -6.41413,-8.20873 3.64,-1.57811 2.37008,1.6193 4.95138,20.57528 -0.6129,15.97922 z m -35.17699,-4.62408 c 2.91399,-27.60391 6.43029,15.89973 0,0 z m -115.77806,1.82449 c 3.00665,-6.97268 1.37021,6.6238 0,0 z m 163.20703,-2.00775 c 5.02837,-4.1121 6.83759,3.86523 0,0 z m -58.2241,-1.98098 c -4.7488,-12.50326 7.58503,-1.73498 0,0 z m 50.8504,-2.46961 c -3.61798,-6.21529 4.85943,1.09066 0,0 z m -98.02083,-3.08765 c -1.36043,-16.21608 -2.21957,-5.2368 -12.18745,-0.87238 7.35365,-2.39482 9.62531,-26.02448 12.07658,-12.37517 0.54486,2.72858 4.81355,14.66495 0.11087,13.24755 z m 21.76737,-2.11875 c 1.90414,-7.19595 3.84907,3.94344 0,0 z"
       id="path4189"
       inkscape:connector-curvature="0"
       sodipodi:nodetypes="ccccccccccccccccccccccccccccccccccccccccccccccccccccccccccccccccccccccccccccccccccccccccccccccccccccccccccccccccccccccccccccccccccccccccccccccccccccccccccccccccccccccccccccccccccccccccccccccccccccccccccccccccccccccccccccccccccccccccccccccccccccccccccccccccccccccccccccccccccccccccccccccccccccccccccccccccccccccccccccccccccccccccccccccccccccccccccccccccccccccccccccccccccccccccccccccccccccccccccccccccccccccccccccccccccccccccccccccccccccccccccccccccccccccccccccccccccccccccccccccccccccccccccccccccccccccccccccccccccccccccccccccccccccccccccccccccccccccccccccccccccccccccccccccccccccc" />
  </g>
</svg>
