<?xml version="1.0" encoding="UTF-8" standalone="no"?>
<!-- Created with Inkscape (http://www.inkscape.org/) -->

<svg
   xmlns:dc="http://purl.org/dc/elements/1.1/"
   xmlns:cc="http://creativecommons.org/ns#"
   xmlns:rdf="http://www.w3.org/1999/02/22-rdf-syntax-ns#"
   xmlns:svg="http://www.w3.org/2000/svg"
   xmlns="http://www.w3.org/2000/svg"
   xmlns:sodipodi="http://sodipodi.sourceforge.net/DTD/sodipodi-0.dtd"
   xmlns:inkscape="http://www.inkscape.org/namespaces/inkscape"
   width="210mm"
   height="297mm"
   viewBox="0 0 744.09448819 1052.3622047"
   id="svg2"
   version="1.1"
   inkscape:version="0.91 r13725"
   sodipodi:docname="woman1.svg">
  <defs
     id="defs4" />
  <sodipodi:namedview
     id="base"
     pagecolor="#ffffff"
     bordercolor="#666666"
     borderopacity="1.0"
     inkscape:pageopacity="0.0"
     inkscape:pageshadow="2"
     inkscape:zoom="0.35"
     inkscape:cx="-112.14286"
     inkscape:cy="517.14286"
     inkscape:document-units="px"
     inkscape:current-layer="layer1"
     showgrid="false"
     inkscape:window-width="1152"
     inkscape:window-height="659"
     inkscape:window-x="680"
     inkscape:window-y="256"
     inkscape:window-maximized="0" />
  <metadata
     id="metadata7">
    <rdf:RDF>
      <cc:Work
         rdf:about="">
        <dc:format>image/svg+xml</dc:format>
        <dc:type
           rdf:resource="http://purl.org/dc/dcmitype/StillImage" />
      </cc:Work>
    </rdf:RDF>
  </metadata>
  <g
     inkscape:label="Layer 1"
     inkscape:groupmode="layer"
     id="layer1">
    <path
       style="fill:#000000"
       d="m 91.759256,450.9264 c -2.055198,-0.33442 -5.744132,-1.36982 -8.197634,-2.30087 -8.266473,-3.13697 -15.533125,-12.59898 -16.601122,-21.61658 -0.46022,-3.88584 1.06224,-10.71489 3.617189,-16.22502 2.532027,-5.4607 10.394677,-12.91968 17.071172,-16.19475 11.42829,-5.60598 22.383029,-6.21931 50.072079,-2.8034 9.65943,1.19165 19.91673,2.3755 22.79401,2.63078 10.46247,0.92827 24.17608,-2.06577 31.24233,-6.821 2.04518,-1.37631 3.82301,-2.39787 3.95074,-2.27015 0.12772,0.12773 -1.53523,2.07043 -3.69544,4.31713 -4.62552,4.81069 -11.2081,8.26402 -20.11526,10.55277 -5.55436,1.42724 -9.12293,1.63364 -36.79208,2.12805 -32.79872,0.58607 -36.587641,0.98887 -46.255929,4.91745 -12.707791,5.16363 -20.195065,14.25681 -18.755393,22.77813 0.632654,3.74465 4.146381,8.97989 7.658362,11.4105 8.41996,5.82738 23.767,3.82022 31.73807,-4.15085 7.28755,-7.28755 6.6472,-16.64479 -1.34801,-19.69819 -2.90317,-1.10873 -3.91624,-1.15991 -7.42332,-0.37507 -3.346627,0.74895 -4.590986,1.5106 -7.071063,4.32812 -3.081296,3.50053 -3.861225,6.54241 -2.12311,8.28053 0.683909,0.6839 1.170281,0.62988 2.127444,-0.23634 0.935789,-0.84688 1.957983,-0.97469 4.157962,-0.51987 3.381937,0.69917 4.182647,2.80649 2.210197,5.81683 -3.116056,4.7557 -12.416053,-0.17112 -12.355177,-6.54537 0.02965,-3.10466 2.715718,-7.74172 5.983837,-10.33012 2.728501,-2.16101 3.928049,-2.58898 7.97977,-2.84698 6.20751,-0.39526 10.39346,1.199 14.31306,5.45127 3.62389,3.93145 4.92105,8.15478 4.31141,14.03719 -0.48262,4.65695 -2.77599,9.04708 -6.08639,11.65105 -4.80012,3.77578 -14.877282,5.86011 -22.407704,4.63476 z M 71.976533,403.35649 c -0.01202,-0.86961 1.162629,-3.94886 2.610391,-6.84277 3.19971,-6.39584 9.935932,-13.0059 17.524642,-17.19639 l 5.208931,-2.87639 -6.143674,-2.48561 C 76.222651,367.90516 63.903915,359.69061 50.781556,347.01841 25.416721,322.52369 9.6982545,289.88533 4.6281799,251.18394 2.6214822,235.86624 2.9359528,213.57122 5.3530622,199.79154 9.1737981,178.00993 17.244921,155.32101 26.198425,141.19267 c 1.065534,-1.68137 3.10933,-4.90672 4.541768,-7.16744 7.646273,-12.06755 23.459257,-28.64072 35.329622,-37.028033 6.346378,-4.484204 6.385957,-4.532172 5.205721,-6.309698 -1.723359,-2.595527 -1.553556,-10.754664 0.302943,-14.55668 4.512167,-9.240681 17.959256,-15.345347 33.802041,-15.345347 6.08168,0 12.90902,0.814842 36.07714,4.305796 11.65455,1.756104 27.89306,1.737444 34.3538,-0.03946 7.19191,-1.978012 13.78449,-5.618599 18.75888,-10.359125 3.7203,-3.545402 4.43167,-3.965858 4.42554,-2.615706 -0.0239,5.273783 -8.3068,15.874659 -16.65142,21.311387 -4.72949,3.081385 -12.12194,6.074828 -15.03357,6.087593 -0.8605,0.0036 2.06555,1.489864 6.50232,3.302425 16.76757,6.850088 30.08757,15.714945 42.75257,28.453128 22.93844,23.07098 37.42039,52.25733 44.12793,88.93372 1.6346,8.93785 2.33177,37.90688 1.15342,47.92737 -3.65969,31.12142 -14.72568,59.57748 -32.22179,82.85792 -6.35634,8.45778 -17.19646,19.52847 -25.17298,25.70838 l -6.13466,4.75292 1.23864,2.33194 c 1.9214,3.61737 1.61215,9.81949 -0.7125,14.28946 -3.30892,6.36257 -8.65171,10.16171 -18.52426,13.17216 -8.4862,2.5877 -20.9944,2.39556 -43.55278,-0.66902 -26.943,-3.66023 -38.619405,-3.14086 -49.465556,2.20024 -4.64645,2.2881 -9.758794,6.12899 -13.255739,9.95899 -1.882058,2.06131 -2.04883,2.11458 -2.068972,0.66092 z M 188.31762,383.64908 c 8.50442,-3.7606 12.06756,-11.18905 8.72704,-18.19419 l -1.21119,-2.53988 -4.94367,3.00338 c -10.09806,6.13479 -23.04245,11.23104 -35.13318,13.83206 l -6.25227,1.34502 9.24202,2.01609 c 12.62014,2.753 12.16916,2.69759 19.4821,2.39353 4.52819,-0.18827 7.59241,-0.75198 10.08915,-1.85601 z m -38.17655,-13.87162 c 3.65043,-0.63579 8.48683,-1.68215 10.74755,-2.32524 6.19095,-1.7611 18.76048,-6.96311 21.29932,-8.81493 1.23312,-0.89943 3.7554,-2.36223 5.60508,-3.25068 5.09923,-2.4493 15.51619,-10.57912 22.423,-17.49984 22.37836,-22.42344 35.95313,-50.19042 41.57146,-85.03377 1.9403,-12.03318 1.77407,-38.58639 -0.31579,-50.44575 -7.22969,-41.02639 -25.46647,-72.79381 -54.33686,-94.65172 -20.92262,-15.84061 -46.13306,-23.342 -72.13276,-21.46317 -50.377743,3.640471 -94.127056,45.43907 -107.952977,103.13951 -3.420655,14.27562 -4.311012,22.35765 -4.311012,39.13244 0,16.25136 0.876785,24.62147 3.953429,37.74089 12.498332,53.29537 49.549489,93.19494 95.3638,102.69517 10.89736,2.25971 27.61469,2.60081 38.08576,0.77709 z m -33.71945,-4.52957 c -7.13187,-1.27321 -12.73046,-2.78272 -18.309936,-4.9368 C 92.868703,358.28694 81.607567,352.70468 77.63307,350.15964 66.509212,343.03657 53.207102,330.39054 44.799757,318.9457 12.684577,275.22763 7.1417564,211.29953 31.131526,161.3033 39.060618,144.77856 47.640169,132.86681 60.360779,120.72171 75.542801,106.22657 92.280759,97.179992 112.6849,92.441409 c 8.4317,-1.95815 30.89743,-1.973844 39.98293,-0.02798 38.30544,8.204142 70.77318,37.805662 86.36941,78.744792 21.82912,57.30005 9.28859,122.82284 -31.19164,162.97264 -17.16421,17.02409 -35.3767,26.84253 -57.24293,30.85993 -9.51564,1.74827 -25.1686,1.86598 -34.18105,0.25705 z m 36.41207,-7.00501 c 43.25202,-9.11473 78.10825,-48.17433 88.37262,-99.02965 6.53065,-32.35638 2.50899,-66.1529 -11.34402,-95.33095 C 210.91704,123.97863 176.98525,99.230065 138.07383,96.935233 94.229205,94.349457 52.853458,123.15356 33.266552,169.89776 c -4.571865,10.91077 -6.406464,17.15298 -9.664444,32.88316 -1.938175,9.3579 -1.91481,40.6478 0.0382,51.1931 7.520037,40.60403 28.136192,73.25915 57.656096,91.32484 13.436979,8.2232 26.207461,12.67041 42.224961,14.70447 5.6907,0.72265 22.24798,-0.27175 29.31231,-1.76045 z m 20.5954,-29.1398 c -11.24598,-3.83744 -27.21962,-12.94588 -33.89497,-19.32747 -3.47191,-3.31913 -11.78188,-8.81357 -14.87275,-9.83365 -3.20922,-1.05913 -6.34224,-0.7359 -10.44777,1.07789 -3.33485,1.47331 -3.30609,1.39575 1.46068,-3.9394 3.7096,-4.15192 10.70848,-13.73655 12.50881,-17.13019 0.92849,-1.75023 2.14835,-3.18224 2.71079,-3.18224 0.65452,0 0.882,-0.53776 0.63195,-1.49394 -0.42375,-1.62045 0.56636,-2.74294 1.32984,-1.50762 0.59717,0.96626 3.37058,0.99793 3.37058,0.0385 0,-0.93947 -2.65241,-2.35618 -3.26479,-1.7438 -0.25956,0.25956 -0.47193,-0.0886 -0.47193,-0.77365 0,-0.68507 0.52712,-1.24558 1.17138,-1.24558 0.81818,0 1.03298,-0.43605 0.71236,-1.4462 -0.25245,-0.79541 0.0389,-3.23362 0.64749,-5.41825 1.38226,-4.96207 2.10848,-14.96944 1.37118,-18.89509 -0.62001,-3.3012 -1.25352,-3.81569 -11.51747,-9.35368 -9.31534,-5.02616 -18.11917,-14.11407 -22.59406,-23.32314 -3.655743,-7.52328 -6.41076,-14.92558 -6.41076,-17.2247 0,-0.82589 -0.398388,-1.30233 -0.93418,-1.11721 -0.627106,0.21667 -0.916155,1.92805 -0.879344,5.20632 0.0642,5.7174 1.400733,9.73036 8.529564,25.61027 6.39965,14.25562 7.78975,19.83684 7.32817,29.4225 -0.37317,7.74954 -2.0826,12.51033 -6.31175,17.57831 -4.659433,5.5836 -12.982722,8.82928 -20.148357,7.85689 -5.022902,-0.68163 -11.323112,-4.75345 -13.586806,-8.78115 -2.080482,-3.70171 -2.176058,-9.7186 -0.222703,-14.01988 1.644547,-3.62126 6.295475,-6.27997 10.95396,-6.26185 4.074594,0.0159 5.743223,1.15922 2.6752,1.83307 -3.175921,0.69755 -5.340021,3.63908 -5.340021,7.25838 0,7.61722 10.035832,9.15622 13.673809,2.09689 2.91288,-5.65231 -0.319122,-13.10364 -10.410945,-24.00226 -10.770777,-11.63184 -16.391262,-18.98397 -19.611748,-25.65398 -3.804964,-7.88054 -4.856095,-12.63481 -4.360319,-19.72171 0.500978,-7.16129 1.321496,-9.86836 4.687781,-15.46597 2.672444,-4.44386 2.673449,-4.44886 0.470827,-2.34377 -1.214034,1.16027 -3.172298,3.85071 -4.351697,5.97876 -2.057117,3.71173 -2.143444,4.26449 -2.121538,13.58464 0.02158,9.1903 0.167274,10.12836 2.694697,17.35322 1.469525,4.20075 2.35618,7.44263 1.970347,7.20418 -1.535853,-0.94922 -5.715577,-8.41013 -7.524503,-13.43145 -6.300521,-17.48935 -2.44564,-33.9404 9.895636,-42.23051 10.767064,-7.23265 27.957176,-7.82609 38.48217,-1.3285 3.16655,1.95485 3.95184,2.1586 5.53665,1.43652 l 1.84673,-0.84144 -3.00989,-3.13829 c -3.18659,-3.32252 -4.17155,-5.74399 -3.47129,-8.53401 0.4743,-1.88977 1.71737,-2.19401 3.14564,-0.76988 0.51529,0.5138 1.99506,0.93418 3.28836,0.93418 3.03015,0 5.21093,3.21865 3.75756,5.54585 -0.7605,1.21776 -0.6996,1.49969 0.37497,1.73567 2.12715,0.46712 5.53419,-0.78437 7.64766,-2.80921 1.7559,-1.68225 2.25096,-1.81155 4.15888,-1.08616 3.01672,1.14696 6.69375,0.27792 8.49087,-2.00674 l 1.51662,-1.92808 -1.85791,-1.46143 c -2.1051,-1.65587 -2.38717,-3.70629 -0.73689,-5.35657 0.61656,-0.61656 1.1256,-1.73358 1.13121,-2.48226 0.0188,-2.51442 0.90344,-4.72428 1.89108,-4.72428 0.53879,0 1.59645,0.78418 2.35037,1.74262 0.7539,0.95844 2.30358,1.97675 3.44372,2.2629 2.52447,0.6336 3.90033,3.59315 2.70701,5.82289 -0.4444,0.83038 -0.69667,1.59249 -0.56061,1.69357 4.43611,3.29603 7.08241,3.48584 9.86096,0.70729 1.08364,-1.08365 1.97026,-2.26072 1.97026,-2.6157 0,-0.35499 1.40719,-0.64544 3.1271,-0.64544 5.85755,0 13.57897,-5.41622 11.77847,-8.26206 -1.15669,-1.82824 -0.78099,-4.38331 0.78867,-5.36357 0.82208,-0.5134 1.49469,-1.37371 1.49469,-1.91182 0,-1.42573 2.16703,-5.3882 2.94675,-5.3882 0.36649,0 1.24431,1.51338 1.9507,3.36305 1.17769,3.08372 1.18815,3.62688 0.12596,6.53927 -0.63712,1.74692 -1.37795,4.7865 -1.64629,6.75464 -0.26834,1.96814 -1.11986,5.41526 -1.89226,7.66028 l -1.40436,4.08185 4.25698,0.007 c 14.082,0.0242 25.41445,15.51844 23.02146,31.47608 -0.47557,3.1713 -4.67648,11.6265 -5.41141,10.89156 -0.19965,-0.19964 0.19701,-2.28939 0.88149,-4.64388 1.34697,-4.63345 1.27448,-13.9265 -0.11952,-15.3205 -0.54782,-0.54781 -0.68261,-0.0901 -0.44673,1.51711 0.45944,3.13032 -1.09782,10.65943 -3.27741,15.84591 -0.98805,2.35108 -1.79644,5.49836 -1.79644,6.99395 0,2.5848 0.1016,2.69546 2.0552,2.2383 1.13035,-0.26453 3.14818,-1.64126 4.48406,-3.05942 2.73431,-2.90273 3.32687,-1.70159 0.7664,1.55352 -1.51498,1.92599 -1.53528,2.06468 -0.22874,1.56331 1.39314,-0.5346 1.39499,-0.50736 0.0652,0.96206 -0.7527,0.83173 -2.49945,1.72439 -3.88165,1.98369 -1.38221,0.25931 -2.51311,0.73122 -2.51311,1.04868 0,0.85133 5.3662,5.41208 8.09733,6.88196 2.93147,1.5777 3.066,3.69943 0.40338,6.36205 l -1.96211,1.96211 1.96211,1.4293 c 2.54432,1.8534 2.57509,4.60527 0.0699,6.24675 -1.71893,1.12628 -1.78738,1.35571 -0.74734,2.50494 1.66135,1.83577 1.40964,3.41774 -0.77118,4.84667 -1.78399,1.16891 -1.88188,1.52922 -1.4199,5.22675 0.89796,7.18703 -2.01806,9.49537 -11.94851,9.45852 -5.33283,-0.0198 -15.40081,-1.52014 -18.70233,-2.78705 -1.29618,-0.4974 -3.02277,2.10687 -4.55339,6.86797 -1.23708,3.84807 -2.59679,25.52877 -1.71623,27.36557 0.26061,0.54362 1.20831,3.67884 2.106,6.96716 2.81854,10.32458 7.16251,16.89961 20.31163,30.74372 6.15318,6.47841 7.42367,8.20972 7.23328,9.85684 -0.21601,1.86867 -0.49718,2.01026 -4.34136,2.18622 -2.97896,0.13635 -5.90423,-0.42396 -10.62721,-2.03558 z m -14.7248,-40.75122 c 0.0773,-1.00092 -2.09299,-2.32422 -2.74407,-1.67315 -0.62921,0.62922 1.16248,2.92847 2.05119,2.63222 0.34934,-0.11644 0.66114,-0.54803 0.69288,-0.95907 z m -5.28911,-2.98937 c -0.51171,-0.61656 -1.60298,-1.12102 -2.42506,-1.12102 -1.24387,0 -1.33857,0.18811 -0.56432,1.12102 0.5117,0.61656 1.60297,1.12101 2.42505,1.12101 1.24387,0 1.33856,-0.1881 0.56433,-1.12101 z m -5.23142,-2.15487 c 0,-1.05484 -2.56901,-2.12678 -3.31329,-1.3825 -0.61034,0.61034 1.09659,2.41635 2.28378,2.41635 0.56623,0 1.02951,-0.46524 1.02951,-1.03385 z m 9.53239,0.0997 c -0.35625,-1.08173 -3.55363,-1.74488 -3.55363,-0.73704 0,1.06725 0.87778,1.67122 2.42887,1.67122 0.81178,0 1.29911,-0.40476 1.12476,-0.93418 z m -14.7638,-2.0289 c 0,-1.13193 -2.81526,-2.40734 -3.3618,-1.523 -0.25473,0.41214 -0.25528,1.08566 -0.001,1.4967 0.59165,0.95731 3.36305,0.97898 3.36305,0.0263 z m 9.53239,-0.21313 c -0.35625,-1.08173 -3.55363,-1.74489 -3.55363,-0.73705 0,1.06725 0.87778,1.67123 2.42887,1.67123 0.81178,0 1.2991,-0.40477 1.12476,-0.93418 z m -5.04832,-1.9637 c 0,-0.3607 -0.43166,-1.01407 -0.95925,-1.45193 -1.15991,-0.96264 -3.18779,0.0919 -2.45545,1.27688 0.60655,0.9814 3.4147,1.12536 3.4147,0.17505 z m 8.78504,-0.27834 c -0.35625,-1.08172 -3.55363,-1.74488 -3.55363,-0.73704 0,1.06725 0.87778,1.67122 2.42887,1.67122 0.81178,0 1.29911,-0.40476 1.12476,-0.93418 z m -19.24786,-0.93418 c -0.51171,-0.61656 -1.60298,-1.12102 -2.42506,-1.12102 -1.24387,0 -1.33856,0.18811 -0.56432,1.12102 0.5117,0.61656 1.60297,1.12102 2.42505,1.12102 1.24387,0 1.33856,-0.18811 0.56433,-1.12102 z m 4.48406,-1.44432 c 0,-1.10338 -2.77152,-2.38571 -3.52587,-1.63135 -0.62313,0.62313 1.29753,2.702 2.49636,2.702 0.56623,0 1.02951,-0.4818 1.02951,-1.07065 z m 9.53239,0.13647 c -0.35625,-1.08173 -3.55363,-1.74488 -3.55363,-0.73704 0,1.06725 0.87778,1.67122 2.42887,1.67122 0.81178,0 1.29911,-0.40476 1.12476,-0.93418 z m -5.55303,-1.79959 c 0.67355,-0.67356 -0.93499,-2.49764 -2.2025,-2.49764 -1.28539,0 -1.3612,1.98364 -0.0953,2.49442 1.36438,0.55055 1.74996,0.55108 2.29783,0.003 z m -5.80747,-3.92721 c -0.61745,-0.99906 -3.4033,-1.08277 -3.4033,-0.10226 0,1.0745 2.52525,2.27526 3.26056,1.5504 0.35468,-0.34962 0.41891,-1.00128 0.14274,-1.44814 z m 7.01116,-37.28581 c 0.79838,-2.4191 0.75324,-3.2824 -0.30279,-5.79192 -1.17977,-2.80354 -1.29393,-2.87748 -2.31329,-1.49838 -1.29448,1.7513 -1.391,5.62658 -0.20497,8.22962 1.17639,2.58192 1.71851,2.40142 2.82105,-0.93932 z m -0.69898,-12.10405 c 0,-0.77356 -0.33868,-1.61579 -0.75262,-1.87162 -0.96049,-0.59361 -1.7898,1.50559 -1.20098,3.04001 0.57465,1.4975 1.9536,0.6728 1.9536,-1.16839 z m -25.37221,-70.57886 c -1.17179,-1.41192 -0.71155,-5.2766 0.62839,-5.2766 1.58997,0 2.60043,2.15784 2.04562,4.36839 -0.55877,2.22633 -1.35549,2.49692 -2.67401,0.90821 z m 32.42723,-8.97673 c -1.29048,-1.96953 -0.83211,-5.18426 0.66868,-4.68962 1.3095,0.4316 2.61636,3.46635 2.19182,5.08979 -0.50453,1.9293 -1.41788,1.80153 -2.8605,-0.40017 z M 80.199869,88.117591 C 91.562943,82.09513 102.36529,78.595908 117.15184,76.147661 l 9.69836,-1.60578 -11.56672,-2.909861 c -20.538834,-5.166996 -32.855598,-4.338866 -39.153858,2.632554 -1.453304,1.608638 -2.847149,3.858109 -3.097432,4.998832 -0.250283,1.140717 -0.580304,2.4833 -0.733372,2.983495 -0.364668,1.191674 1.79212,8.432347 2.511759,8.432347 0.305807,0 2.730988,-1.15274 5.389292,-2.561657 z m -4.50852,-20.532429 c 0,-0.362964 1.955526,-2.461765 4.345617,-4.663998 3.07595,-2.834173 5.920296,-4.608398 9.735113,-6.072506 11.838101,-4.543388 12.125341,-4.573527 44.585811,-4.678436 18.8869,-0.06104 31.694,-0.415111 34.78303,-0.961623 10.86029,-1.921399 20.83695,-6.338755 26.20871,-11.604407 7.66953,-7.518022 7.88796,-17.23032 0.54283,-24.136231 -4.56596,-4.292926 -6.96263,-5.099137 -15.19921,-5.112817 -7.10345,-0.01178 -7.70732,0.11432 -12.19736,2.547333 -8.00957,4.340134 -12.94942,11.572402 -11.62995,17.027036 1.35193,5.588822 5.28732,8.046742 12.09527,7.554302 3.26838,-0.236412 5.00484,-0.821481 7.0358,-2.370571 3.31126,-2.525612 5.46239,-7.323187 4.27683,-9.538423 -0.71746,-1.340587 -0.99226,-1.396841 -2.43666,-0.498796 -2.22913,1.385941 -6.75865,0.648623 -7.10394,-1.156381 -0.43931,-2.296422 0.55217,-4.89754 2.20375,-5.781433 1.99601,-1.068236 7.6024,0.911156 9.25219,3.266583 1.41258,2.01673 1.44778,7.438582 0.0655,10.084523 -4.76743,9.125578 -16.9223,11.088906 -25.1342,4.059826 -6.51607,-5.577516 -7.99385,-13.807978 -3.91643,-21.812522 1.91477,-3.7589456 2.62153,-4.4001492 7.6019,-6.8967699 18.8821,-9.4654407 41.84637,2.1195047 43.25605,21.8216939 0.89033,12.443512 -7.37867,25.08277 -20.7452,31.709258 -10.87613,5.391861 -24.63068,5.959197 -51.20092,2.11188 -22.19188,-3.213334 -25.79521,-3.482851 -33.705073,-2.520958 -7.885297,0.958902 -13.922047,2.870284 -19.070641,6.038248 -2.006829,1.234822 -3.648787,1.948153 -3.648787,1.585189 z"
       id="path4147"
       inkscape:connector-curvature="0" />
  </g>
</svg>
